<svg
  xmlns="http://www.w3.org/2000/svg"
  viewBox="0 0 16 16"
  fill="white"
  width="16"
  height="16"
>
  <path
    fillRule="evenodd"
    d="M8 0C3.58 0 0 3.58 0 8c0 3.54 2.29 6.53 5.47 7.59.4.07.55-.17.55-.38 0-.19-.01-.83-.01-1.5-2.25.49-2.73-1.09-2.73-1.09-.37-.93-.91-1.18-.91-1.18-.75-.51.06-.5.06-.5.83.06 1.26.86 1.26.86.74 1.26 1.94.9 2.41.68.07-.54.29-.9.53-1.1-1.77-.2-3.63-.89-3.63-3.95 0-.87.31-1.59.82-2.15-.08-.2-.36-1.01.08-2.1 0 0 .67-.21 2.2.82.64-.18 1.32-.27 2-.27s1.36.09 2 .27c1.53-1.03 2.2-.82 2.2-.82.44 1.09.16 1.9.08 2.1.51.56.82 1.28.82 2.15 0 3.07-1.86 3.75-3.63 3.95.29.25.54.74.54 1.49 0 1.08-.01 1.95-.01 2.22 0 .21.15.46.55.38C13.71 14.53 16 11.54 16 8c0-4.42-3.58-8-8-8z"
  />
</svg>
